<svg width="41" height="42" viewBox="0 0 41 42" fill="none" xmlns="http://www.w3.org/2000/svg">
<path d="M35.6087 7.76604V33.7993C35.6087 34.3945 35.3723 34.9653 34.9514 35.3862C34.5305 35.8071 33.9597 36.0435 33.3645 36.0435H7.3312C6.73599 36.0435 6.16516 35.8071 5.74428 35.3862C5.3234 34.9653 5.08696 34.3945 5.08696 33.7993V7.76604C5.08696 7.17082 5.3234 6.59999 5.74428 6.17911C6.16516 5.75824 6.73599 5.52179 7.3312 5.52179H33.3645C33.9597 5.52179 34.5305 5.75824 34.9514 6.17911C35.3723 6.59999 35.6087 7.17082 35.6087 7.76604V7.76604ZM14.0639 17.1919H9.57545V31.555H14.0639V17.1919ZM14.4679 12.2545C14.4703 11.915 14.4057 11.5783 14.278 11.2638C14.1502 10.9492 13.9618 10.6629 13.7234 10.4211C13.485 10.1794 13.2013 9.98696 12.8885 9.85486C12.5757 9.72275 12.24 9.65355 11.9005 9.6512H11.8197C11.1292 9.6512 10.4671 9.92548 9.97886 10.4137C9.49065 10.9019 9.21637 11.5641 9.21637 12.2545C9.21637 12.945 9.49065 13.6071 9.97886 14.0954C10.4671 14.5836 11.1292 14.8579 11.8197 14.8579V14.8579C12.1592 14.8662 12.4971 14.8076 12.814 14.6853C13.1308 14.563 13.4205 14.3795 13.6664 14.1453C13.9124 13.911 14.1097 13.6306 14.2473 13.32C14.3848 13.0095 14.4597 12.6749 14.4679 12.3353V12.2545ZM31.1202 22.8294C31.1202 18.5115 28.3732 16.8328 25.6442 16.8328C24.7507 16.788 23.8611 16.9784 23.064 17.3847C22.267 17.7911 21.5905 18.3994 21.1019 19.1488H20.9762V17.1919H16.757V31.555H21.2455V23.9156C21.1806 23.1332 21.4271 22.3568 21.9314 21.7551C22.4356 21.1533 23.1569 20.7749 23.9386 20.7019H24.1092C25.5365 20.7019 26.5958 21.5996 26.5958 23.8618V31.555H31.0843L31.1202 22.8294Z" fill="#445275"/>
</svg>
